<svg id="13a67d2d-c882-4278-8670-0dc2afb9d10a" data-name="レイヤー 1" xmlns="http://www.w3.org/2000/svg" viewBox="0 0 152 152"><title>favicon2</title><rect width="152" height="152" rx="15" ry="15" fill="#ff9137"/><path d="M127.63,111a2.23,2.23,0,0,1-.4,1.34,3.35,3.35,0,0,1-1.89.91,25.11,25.11,0,0,1-4.36.51q-2.88.14-7.84.15-4.17,0-6.65-.15a19.63,19.63,0,0,1-3.92-.55,4.48,4.48,0,0,1-2-1,5.25,5.25,0,0,1-1-1.49L88,89.67Q86,86.11,84,83.35a21.61,21.61,0,0,0-4.42-4.62,17.31,17.31,0,0,0-5.61-2.8A25.83,25.83,0,0,0,66.6,75H58.47v35.84a1.73,1.73,0,0,1-.64,1.31,5,5,0,0,1-2.13.95,27.49,27.49,0,0,1-4,.58q-2.48.22-6.35.22t-6.3-.22a27.6,27.6,0,0,1-4-.58,4.55,4.55,0,0,1-2.08-.95,1.79,1.79,0,0,1-.6-1.31V25.41a5.05,5.05,0,0,1,2.23-4.62,10.08,10.08,0,0,1,5.51-1.42H73.35q5.06,0,8.33.15t6,.36a70.2,70.2,0,0,1,13.94,2.76,36.1,36.1,0,0,1,10.52,5.13,22,22,0,0,1,6.6,7.49A21,21,0,0,1,121,45.18a22,22,0,0,1-1.64,8.61,20.74,20.74,0,0,1-4.81,6.94A30.09,30.09,0,0,1,106.69,66a50.64,50.64,0,0,1-10.62,3.63,32.83,32.83,0,0,1,5.41,2.47,26.18,26.18,0,0,1,4.76,3.52,35.27,35.27,0,0,1,4.22,4.73,55.89,55.89,0,0,1,3.87,6l10.82,18.54a42.48,42.48,0,0,1,2,4A6,6,0,0,1,127.63,111ZM94,47.14a11.32,11.32,0,0,0-2.88-7.85q-2.88-3.2-9.43-4.51-2-.36-4.51-.58t-7-.22H58.47V60.66h13.3a42.75,42.75,0,0,0,9.72-1,22.3,22.3,0,0,0,6.95-2.76,12.2,12.2,0,0,0,4.17-4.25A11.07,11.07,0,0,0,94,47.14Z" fill="#fefafa"/><path d="M133.44,140.17H18.56a3.54,3.54,0,1,1,0-7.09H133.44a3.54,3.54,0,1,1,0,7.09Z" fill="#fdce7f"/><path d="M133.44,127H18.56a3.54,3.54,0,1,1,0-7.09H133.44a3.54,3.54,0,1,1,0,7.09Z" fill="#bbb9bb"/></svg>